<svg xmlns="http://www.w3.org/2000/svg" viewBox="0 0 512 512" width="512" height="512">
  <rect width="512" height="512" rx="100" fill="#0a0a0a"/>
  <rect x="40" y="40" width="432" height="432" rx="80" fill="#141414"/>
  <!-- Document left -->
  <rect x="80" y="110" width="140" height="180" rx="14" fill="#1e1e1e" stroke="#2a2a2a" stroke-width="3"/>
  <rect x="96" y="140" width="108" height="8" rx="4" fill="#3a3a3a"/>
  <rect x="96" y="158" width="88" height="8" rx="4" fill="#3a3a3a"/>
  <rect x="96" y="176" width="100" height="8" rx="4" fill="#3a3a3a"/>
  <rect x="96" y="194" width="76" height="8" rx="4" fill="#3a3a3a"/>
  <!-- Arrow -->
  <path d="M240 210 L270 210 M258 196 L272 210 L258 224" stroke="#ff6b35" stroke-width="10" stroke-linecap="round" stroke-linejoin="round" fill="none"/>
  <!-- Document right (EPUB) -->
  <rect x="292" y="110" width="140" height="180" rx="14" fill="#ff6b35"/>
  <rect x="308" y="140" width="108" height="8" rx="4" fill="rgba(0,0,0,0.3)"/>
  <rect x="308" y="158" width="88" height="8" rx="4" fill="rgba(0,0,0,0.3)"/>
  <rect x="308" y="176" width="100" height="8" rx="4" fill="rgba(0,0,0,0.3)"/>
  <rect x="308" y="194" width="60" height="8" rx="4" fill="rgba(0,0,0,0.3)"/>
  <!-- Labels -->
  <text x="150" y="320" text-anchor="middle" font-family="monospace" font-size="22" fill="#666">PDF/DOCX</text>
  <text x="362" y="320" text-anchor="middle" font-family="monospace" font-size="26" fill="#ff6b35" font-weight="bold">EPUB</text>
  <!-- Bottom label -->
  <text x="256" y="400" text-anchor="middle" font-family="sans-serif" font-size="32" fill="#f0ece4" font-weight="bold" letter-spacing="2">DocConvert</text>
</svg>
